<?xml version="1.0" encoding="UTF-8"?>
<!DOCTYPE svg PUBLIC "-//W3C//DTD SVG 1.1//EN" "http://www.w3.org/Graphics/SVG/1.1/DTD/svg11.dtd">
<svg xmlns="http://www.w3.org/2000/svg" version="1.1" width="81px" height="47px" style="shape-rendering:geometricPrecision; text-rendering:geometricPrecision; image-rendering:optimizeQuality; fill-rule:evenodd; clip-rule:evenodd" xmlns:xlink="http://www.w3.org/1999/xlink">
<g><path style="opacity:1" fill="#f1f1f1" d="M 8.5,-0.5 C 11.5,-0.5 14.5,-0.5 17.5,-0.5C 17.5,0.166667 17.5,0.833333 17.5,1.5C 16.1667,2.16667 14.8333,2.83333 13.5,3.5C 13.6106,1.35231 12.944,1.01897 11.5,2.5C 9.7869,2.12071 8.7869,1.12071 8.5,-0.5 Z"/></g>
<g><path style="opacity:1" fill="#f5f5f5" d="M -0.5,-0.5 C 1.16667,-0.5 2.83333,-0.5 4.5,-0.5C 4.5,0.166667 4.5,0.833333 4.5,1.5C 3.34062,3.25027 1.67396,4.25027 -0.5,4.5C -0.5,2.83333 -0.5,1.16667 -0.5,-0.5 Z"/></g>
<g><path style="opacity:1" fill="#f5f5f5" d="M 4.5,-0.5 C 5.83333,-0.5 7.16667,-0.5 8.5,-0.5C 8.7869,1.12071 9.7869,2.12071 11.5,2.5C 12.944,1.01897 13.6106,1.35231 13.5,3.5C 12.0597,4.36288 10.7264,4.36288 9.5,3.5C 8.14507,4.18819 7.14507,5.18819 6.5,6.5C 3.88747,5.90451 3.88747,5.07117 6.5,4C 5.24402,3.58309 4.57735,2.74975 4.5,1.5C 4.5,0.833333 4.5,0.166667 4.5,-0.5 Z"/></g>
<g><path style="opacity:1" fill="#383838" d="M 35.5,-0.5 C 36.1667,-0.5 36.8333,-0.5 37.5,-0.5C 39.5145,0.923808 41.8478,1.59047 44.5,1.5C 44.8417,2.33825 45.5084,2.67158 46.5,2.5C 46.5,3.16667 46.1667,3.5 45.5,3.5C 44.5,3.5 43.5,3.5 42.5,3.5C 42.5,2.83333 42.1667,2.5 41.5,2.5C 40.4168,2.46056 39.4168,2.12723 38.5,1.5C 37.5067,6.11965 37.1734,10.7863 37.5,15.5C 36.8333,13.8333 36.1667,12.1667 35.5,10.5C 35.6646,7.48162 35.498,4.48162 35,1.5C 34.0053,2.06594 33.172,2.73261 32.5,3.5C 30.6316,4.26315 28.9649,5.26315 27.5,6.5C 26.8333,6.5 26.1667,6.5 25.5,6.5C 28.8333,4.16667 32.1667,1.83333 35.5,-0.5 Z"/></g>
<g><path style="opacity:1" fill="#f3f3f3" d="M 37.5,-0.5 C 41.1667,-0.5 44.8333,-0.5 48.5,-0.5C 47.8166,1.17649 46.4832,1.84316 44.5,1.5C 41.8478,1.59047 39.5145,0.923808 37.5,-0.5 Z"/></g>
<g><path style="opacity:1" fill="#f6f6f6" d="M 17.5,-0.5 C 20.5,-0.5 23.5,-0.5 26.5,-0.5C 25.8333,0.833333 25.1667,2.16667 24.5,3.5C 23.2502,3.42265 22.4169,2.75598 22,1.5C 21.5831,2.75598 20.7498,3.42265 19.5,3.5C 19.5,2.16667 18.8333,1.5 17.5,1.5C 17.5,0.833333 17.5,0.166667 17.5,-0.5 Z"/></g>
<g><path style="opacity:1" fill="#fafafa" d="M 35.5,10.5 C 35.5,11.8333 35.5,13.1667 35.5,14.5C 34.8333,14.5 34.1667,14.5 33.5,14.5C 33.2806,11.0144 33.6139,7.68104 34.5,4.5C 34.0431,3.70245 33.3764,3.36912 32.5,3.5C 33.172,2.73261 34.0053,2.06594 35,1.5C 35.498,4.48162 35.6646,7.48162 35.5,10.5 Z"/></g>
<g><path style="opacity:1" fill="#f8f8f8" d="M 41.5,2.5 C 40.9924,4.23267 40.159,4.566 39,3.5C 38.5304,4.57683 38.6971,5.57683 39.5,6.5C 38.3659,8.96638 38.1993,11.633 39,14.5C 40.2837,13.4281 40.6171,12.0948 40,10.5C 40.7083,11.3805 41.5416,12.0472 42.5,12.5C 44.9312,13.7409 44.9312,14.9076 42.5,16C 43.4158,16.2784 44.0825,16.7784 44.5,17.5C 42.0347,17.233 39.7014,16.5664 37.5,15.5C 37.1734,10.7863 37.5067,6.11965 38.5,1.5C 39.4168,2.12723 40.4168,2.46056 41.5,2.5 Z"/></g>
<g><path style="opacity:1" fill="#e6e6e6" d="M 48.5,-0.5 C 50.1667,-0.5 51.8333,-0.5 53.5,-0.5C 53.5,0.166667 53.5,0.833333 53.5,1.5C 51.9731,1.42702 50.9731,2.09368 50.5,3.5C 49.0413,3.56745 47.7079,3.23411 46.5,2.5C 45.5084,2.67158 44.8417,2.33825 44.5,1.5C 46.4832,1.84316 47.8166,1.17649 48.5,-0.5 Z"/></g>
<g><path style="opacity:1" fill="#f6f6f6" d="M 53.5,-0.5 C 56.5,-0.5 59.5,-0.5 62.5,-0.5C 62.5,0.166667 62.5,0.833333 62.5,1.5C 60.9139,2.41321 59.4139,2.41321 58,1.5C 57.5357,2.09442 57.369,2.76109 57.5,3.5C 56.1667,2.83333 54.8333,2.16667 53.5,1.5C 53.5,0.833333 53.5,0.166667 53.5,-0.5 Z"/></g>
<g><path style="opacity:1" fill="#f1f1f1" d="M 62.5,-0.5 C 64.1667,-0.5 65.8333,-0.5 67.5,-0.5C 68.1408,0.482236 68.8075,1.48224 69.5,2.5C 68.3687,3.60388 67.5354,3.27055 67,1.5C 66.5831,2.75598 65.7498,3.42265 64.5,3.5C 63.1667,3.5 62.5,2.83333 62.5,1.5C 62.5,0.833333 62.5,0.166667 62.5,-0.5 Z"/></g>
<g><path style="opacity:1" fill="#f6f6f6" d="M 75.5,-0.5 C 77.1667,-0.5 78.8333,-0.5 80.5,-0.5C 80.5,0.166667 80.5,0.833333 80.5,1.5C 79.2652,1.72142 78.2652,2.38809 77.5,3.5C 76.8076,2.97473 76.3076,2.30806 76,1.5C 75.5831,2.75598 74.7498,3.42265 73.5,3.5C 73.7329,1.93819 74.3995,0.60486 75.5,-0.5 Z"/></g>
<g><path style="opacity:1" fill="#f3f3f3" d="M 53.5,1.5 C 54.8333,2.16667 56.1667,2.83333 57.5,3.5C 59.5486,4.88178 61.2153,6.54845 62.5,8.5C 61.5,8.5 60.5,8.5 59.5,8.5C 59.3059,6.08824 57.9726,5.08824 55.5,5.5C 54.0697,4.46253 52.403,3.79586 50.5,3.5C 50.9731,2.09368 51.9731,1.42702 53.5,1.5 Z"/></g>
<g><path style="opacity:1" fill="#ededed" d="M 26.5,-0.5 C 29.5,-0.5 32.5,-0.5 35.5,-0.5C 32.1667,1.83333 28.8333,4.16667 25.5,6.5C 25.1667,6.5 24.8333,6.5 24.5,6.5C 24.5,5.5 24.5,4.5 24.5,3.5C 25.1667,2.16667 25.8333,0.833333 26.5,-0.5 Z"/></g>
<g><path style="opacity:1" fill="#f6f6f6" d="M 73.5,3.5 C 74.4687,4.30943 75.3021,5.30943 76,6.5C 76.3333,6.16667 76.6667,5.83333 77,5.5C 77.2321,6.73747 77.7321,7.73747 78.5,8.5C 77.9045,11.1125 77.0712,11.1125 76,8.5C 75.9252,10.935 75.0919,11.6016 73.5,10.5C 73.5,9.16667 72.8333,8.5 71.5,8.5C 68.8877,6.01182 69.5543,4.34516 73.5,3.5 Z"/></g>
<g><path style="opacity:1" fill="#f1f1f1" d="M 4.5,1.5 C 4.57735,2.74975 5.24402,3.58309 6.5,4C 3.88747,5.07117 3.88747,5.90451 6.5,6.5C 9.16667,7.16667 9.16667,7.83333 6.5,8.5C 5.54163,8.9528 4.7083,9.61947 4,10.5C 3.69238,9.69194 3.19238,9.02527 2.5,8.5C 1.7084,9.69976 1.7084,11.0331 2.5,12.5C 2.44312,13.609 2.10978,14.609 1.5,15.5C 1.5,16.8333 0.833333,17.5 -0.5,17.5C -0.5,13.1667 -0.5,8.83333 -0.5,4.5C 1.67396,4.25027 3.34062,3.25027 4.5,1.5 Z"/></g>
<g><path style="opacity:1" fill="#f0f0f0" d="M 13.5,3.5 C 12.8902,4.39105 12.5569,5.39105 12.5,6.5C 12.5,7.16667 12.5,7.83333 12.5,8.5C 11.8333,9.83333 11.1667,11.1667 10.5,12.5C 9.83333,12.5 9.16667,12.5 8.5,12.5C 7.83333,11.1667 7.16667,9.83333 6.5,8.5C 9.16667,7.83333 9.16667,7.16667 6.5,6.5C 7.14507,5.18819 8.14507,4.18819 9.5,3.5C 10.7264,4.36288 12.0597,4.36288 13.5,3.5 Z"/></g>
<g><path style="opacity:1" fill="#f4f4f4" d="M 17.5,1.5 C 18.8333,1.5 19.5,2.16667 19.5,3.5C 19.2178,4.77765 18.5511,5.77765 17.5,6.5C 15.7659,5.43795 14.0992,5.43795 12.5,6.5C 12.5569,5.39105 12.8902,4.39105 13.5,3.5C 14.8333,2.83333 16.1667,2.16667 17.5,1.5 Z"/></g>
<g><path style="opacity:1" fill="#efefef" d="M 24.5,3.5 C 24.5,4.5 24.5,5.5 24.5,6.5C 23.5,6.83333 22.8333,7.5 22.5,8.5C 21.8333,8.5 21.1667,8.5 20.5,8.5C 19.7777,7.44886 18.7777,6.78219 17.5,6.5C 18.5511,5.77765 19.2178,4.77765 19.5,3.5C 20.7498,3.42265 21.5831,2.75598 22,1.5C 22.4169,2.75598 23.2502,3.42265 24.5,3.5 Z"/></g>
<g><path style="opacity:1" fill="#efefef" d="M 32.5,3.5 C 33.3764,3.36912 34.0431,3.70245 34.5,4.5C 33.6139,7.68104 33.2806,11.0144 33.5,14.5C 32.8333,14.5 32.5,14.1667 32.5,13.5C 31.9094,12.8485 31.2427,12.1818 30.5,11.5C 31.8329,8.50402 30.8329,6.83735 27.5,6.5C 28.9649,5.26315 30.6316,4.26315 32.5,3.5 Z"/></g>
<g><path style="opacity:1" fill="#efefef" d="M 41.5,2.5 C 42.1667,2.5 42.5,2.83333 42.5,3.5C 43.0906,4.15149 43.7573,4.81815 44.5,5.5C 43.3881,6.26515 42.7214,7.26515 42.5,8.5C 41.5,7.83333 40.5,7.16667 39.5,6.5C 38.6971,5.57683 38.5304,4.57683 39,3.5C 40.159,4.566 40.9924,4.23267 41.5,2.5 Z"/></g>
<g><path style="opacity:1" fill="#f8f8f8" d="M 42.5,3.5 C 43.5,3.5 44.5,3.5 45.5,3.5C 45.8417,4.33825 46.5084,4.67158 47.5,4.5C 46.2086,5.47283 46.2086,6.47283 47.5,7.5C 47.1207,9.2131 46.1207,10.2131 44.5,10.5C 44.5,9.16667 43.8333,8.5 42.5,8.5C 42.7214,7.26515 43.3881,6.26515 44.5,5.5C 43.7573,4.81815 43.0906,4.15149 42.5,3.5 Z"/></g>
<g><path style="opacity:1" fill="#6a6a6a" d="M 46.5,2.5 C 47.7079,3.23411 49.0413,3.56745 50.5,3.5C 52.403,3.79586 54.0697,4.46253 55.5,5.5C 54.8333,5.5 54.5,5.83333 54.5,6.5C 53.609,5.89022 52.609,5.55688 51.5,5.5C 50.0413,5.56745 48.7079,5.23411 47.5,4.5C 46.5084,4.67158 45.8417,4.33825 45.5,3.5C 46.1667,3.5 46.5,3.16667 46.5,2.5 Z"/></g>
<g><path style="opacity:1" fill="#efefef" d="M 62.5,1.5 C 62.5,2.83333 63.1667,3.5 64.5,3.5C 65.1667,4.16667 65.8333,4.83333 66.5,5.5C 65.3634,6.78881 64.0301,7.78881 62.5,8.5C 61.2153,6.54845 59.5486,4.88178 57.5,3.5C 57.369,2.76109 57.5357,2.09442 58,1.5C 59.4139,2.41321 60.9139,2.41321 62.5,1.5 Z"/></g>
<g><path style="opacity:1" fill="#f2f2f2" d="M 67.5,-0.5 C 70.1667,-0.5 72.8333,-0.5 75.5,-0.5C 74.3995,0.60486 73.7329,1.93819 73.5,3.5C 69.5543,4.34516 68.8877,6.01182 71.5,8.5C 70.1667,8.5 68.8333,8.5 67.5,8.5C 67.7373,7.20895 67.404,6.20895 66.5,5.5C 65.8333,4.83333 65.1667,4.16667 64.5,3.5C 65.7498,3.42265 66.5831,2.75598 67,1.5C 67.5354,3.27055 68.3687,3.60388 69.5,2.5C 68.8075,1.48224 68.1408,0.482236 67.5,-0.5 Z"/></g>
<g><path style="opacity:1" fill="#f1f1f1" d="M 80.5,1.5 C 80.5,3.83333 80.5,6.16667 80.5,8.5C 79.8333,8.5 79.1667,8.5 78.5,8.5C 77.7321,7.73747 77.2321,6.73747 77,5.5C 76.6667,5.83333 76.3333,6.16667 76,6.5C 75.3021,5.30943 74.4687,4.30943 73.5,3.5C 74.7498,3.42265 75.5831,2.75598 76,1.5C 76.3076,2.30806 76.8076,2.97473 77.5,3.5C 78.2652,2.38809 79.2652,1.72142 80.5,1.5 Z"/></g>
<g><path style="opacity:1" fill="#f4f4f4" d="M 66.5,5.5 C 67.404,6.20895 67.7373,7.20895 67.5,8.5C 68.8333,8.5 70.1667,8.5 71.5,8.5C 72.8333,8.5 73.5,9.16667 73.5,10.5C 73.5,11.1667 73.5,11.8333 73.5,12.5C 72.2652,12.2786 71.2652,11.6119 70.5,10.5C 69.7174,12.2882 68.3841,13.2882 66.5,13.5C 64.7935,12.1274 63.4602,10.4607 62.5,8.5C 64.0301,7.78881 65.3634,6.78881 66.5,5.5 Z"/></g>
<g><path style="opacity:1" fill="#ededed" d="M 17.5,6.5 C 16.8333,7.83333 16.1667,9.16667 15.5,10.5C 14.5,9.83333 13.5,9.16667 12.5,8.5C 12.5,7.83333 12.5,7.16667 12.5,6.5C 14.0992,5.43795 15.7659,5.43795 17.5,6.5 Z"/></g>
<g><path style="opacity:1" fill="#f7f7f7" d="M 17.5,6.5 C 18.7777,6.78219 19.7777,7.44886 20.5,8.5C 19.3995,9.60486 18.7329,10.9382 18.5,12.5C 17.7777,11.4489 16.7777,10.7822 15.5,10.5C 16.1667,9.16667 16.8333,7.83333 17.5,6.5 Z"/></g>
<g><path style="opacity:1" fill="#1d1d1d" d="M 24.5,6.5 C 24.8333,6.5 25.1667,6.5 25.5,6.5C 25.0269,7.90632 24.0269,8.57298 22.5,8.5C 22.8333,7.5 23.5,6.83333 24.5,6.5 Z"/></g>
<g><path style="opacity:1" fill="#3d3d3d" d="M 54.5,6.5 C 54.5,5.83333 54.8333,5.5 55.5,5.5C 57.9726,5.08824 59.3059,6.08824 59.5,8.5C 60.3705,11.1123 61.0372,13.779 61.5,16.5C 60.3263,15.4863 59.6596,14.153 59.5,12.5C 59.0291,11.0992 58.3624,9.76585 57.5,8.5C 56.1482,9.52435 54.8149,10.5244 53.5,11.5C 53.1667,11.5 52.8333,11.5 52.5,11.5C 53.6253,9.87121 54.9586,8.37121 56.5,7C 55.9056,6.53566 55.2389,6.36899 54.5,6.5 Z"/></g>
<g><path style="opacity:1" fill="#e3e3e3" d="M 25.5,6.5 C 26.1667,6.5 26.8333,6.5 27.5,6.5C 27.6107,7.11742 27.944,7.61742 28.5,8C 26.9733,9.03191 25.64,10.1986 24.5,11.5C 21.7524,11.5983 21.0857,10.5983 22.5,8.5C 24.0269,8.57298 25.0269,7.90632 25.5,6.5 Z"/></g>
<g><path style="opacity:1" fill="#f2f2f2" d="M 39.5,6.5 C 40.5,7.16667 41.5,7.83333 42.5,8.5C 43.8333,8.5 44.5,9.16667 44.5,10.5C 44.5,11.8333 43.8333,12.5 42.5,12.5C 41.5416,12.0472 40.7083,11.3805 40,10.5C 40.6171,12.0948 40.2837,13.4281 39,14.5C 38.1993,11.633 38.3659,8.96638 39.5,6.5 Z"/></g>
<g><path style="opacity:1" fill="#e9e9e9" d="M 51.5,5.5 C 52.609,5.55688 53.609,5.89022 54.5,6.5C 55.2389,6.36899 55.9056,6.53566 56.5,7C 54.9586,8.37121 53.6253,9.87121 52.5,11.5C 52.1667,11.5 51.8333,11.5 51.5,11.5C 50.7249,9.61186 50.7249,7.61186 51.5,5.5 Z"/></g>
<g><path style="opacity:1" fill="#f1f1f1" d="M 59.5,12.5 C 58.2976,13.4054 56.9643,13.4054 55.5,12.5C 54.5084,12.6716 53.8417,12.3382 53.5,11.5C 54.8149,10.5244 56.1482,9.52435 57.5,8.5C 58.3624,9.76585 59.0291,11.0992 59.5,12.5 Z"/></g>
<g><path style="opacity:1" fill="#eeeeee" d="M 47.5,4.5 C 48.7079,5.23411 50.0413,5.56745 51.5,5.5C 50.7249,7.61186 50.7249,9.61186 51.5,11.5C 49.1667,13.1667 47.1667,15.1667 45.5,17.5C 45.1667,17.5 44.8333,17.5 44.5,17.5C 44.0825,16.7784 43.4158,16.2784 42.5,16C 44.9312,14.9076 44.9312,13.7409 42.5,12.5C 43.8333,12.5 44.5,11.8333 44.5,10.5C 46.1207,10.2131 47.1207,9.2131 47.5,7.5C 46.2086,6.47283 46.2086,5.47283 47.5,4.5 Z"/></g>
<g><path style="opacity:1" fill="#f5f5f5" d="M 27.5,6.5 C 30.8329,6.83735 31.8329,8.50402 30.5,11.5C 31.2427,12.1818 31.9094,12.8485 32.5,13.5C 29.779,13.0372 27.1123,12.3705 24.5,11.5C 25.64,10.1986 26.9733,9.03191 28.5,8C 27.944,7.61742 27.6107,7.11742 27.5,6.5 Z"/></g>
<g><path style="opacity:1" fill="#f7f7f7" d="M 6.5,8.5 C 7.16667,9.83333 7.83333,11.1667 8.5,12.5C 7.50838,12.3284 6.84171,12.6618 6.5,13.5C 5.16667,13.1667 3.83333,12.8333 2.5,12.5C 1.7084,11.0331 1.7084,9.69976 2.5,8.5C 3.19238,9.02527 3.69238,9.69194 4,10.5C 4.7083,9.61947 5.54163,8.9528 6.5,8.5 Z"/></g>
<g><path style="opacity:1" fill="#1e1e1e" d="M 20.5,8.5 C 21.1667,8.5 21.8333,8.5 22.5,8.5C 21.0857,10.5983 21.7524,11.5983 24.5,11.5C 24.5,12.1667 24.1667,12.5 23.5,12.5C 22.1667,12.5 20.8333,12.5 19.5,12.5C 19.552,14.9029 19.2186,17.2362 18.5,19.5C 18.2322,21.099 18.5655,22.4324 19.5,23.5C 19.5,23.8333 19.5,24.1667 19.5,24.5C 17.9519,24.1788 17.2852,23.1788 17.5,21.5C 17.5,19.5 17.5,17.5 17.5,15.5C 18.404,14.791 18.7373,13.791 18.5,12.5C 18.7329,10.9382 19.3995,9.60486 20.5,8.5 Z"/></g>
<g><path style="opacity:1" fill="#f2f2f2" d="M 78.5,8.5 C 79.1667,8.5 79.8333,8.5 80.5,8.5C 80.5,12.1667 80.5,15.8333 80.5,19.5C 78.9642,17.9749 77.9642,15.9749 77.5,13.5C 76.8182,14.2427 76.1515,14.9094 75.5,15.5C 74.4489,14.7777 73.7822,13.7777 73.5,12.5C 73.5,11.8333 73.5,11.1667 73.5,10.5C 75.0919,11.6016 75.9252,10.935 76,8.5C 77.0712,11.1125 77.9045,11.1125 78.5,8.5 Z"/></g>
<g><path style="opacity:1" fill="#eeeeee" d="M 15.5,10.5 C 16.7777,10.7822 17.7777,11.4489 18.5,12.5C 18.7373,13.791 18.404,14.791 17.5,15.5C 17.5654,15.0618 17.3988,14.7284 17,14.5C 16.2411,16.0629 15.0744,17.0629 13.5,17.5C 13.5858,16.5041 13.2524,15.6708 12.5,15C 13.748,13.6003 14.748,12.1003 15.5,10.5 Z"/></g>
<g><path style="opacity:1" fill="#f3f3f3" d="M 23.5,12.5 C 24.9303,13.5375 26.597,14.2041 28.5,14.5C 28.5,15.5 28.5,16.5 28.5,17.5C 26.3845,15.9375 24.0511,14.6042 21.5,13.5C 21.1667,13.8333 20.8333,14.1667 20.5,14.5C 21.4565,16.0754 22.1231,17.742 22.5,19.5C 22.5,20.1667 22.5,20.8333 22.5,21.5C 19.203,22.8547 18.8696,22.3547 21.5,20C 20.552,19.5172 19.552,19.3505 18.5,19.5C 19.2186,17.2362 19.552,14.9029 19.5,12.5C 20.8333,12.5 22.1667,12.5 23.5,12.5 Z"/></g>
<g><path style="opacity:1" fill="#efefef" d="M 2.5,12.5 C 3.83333,12.8333 5.16667,13.1667 6.5,13.5C 7.16667,14.8333 7.83333,16.1667 8.5,17.5C 7.16667,18.1667 5.83333,18.8333 4.5,19.5C 4.44563,17.368 3.44563,16.0347 1.5,15.5C 2.10978,14.609 2.44312,13.609 2.5,12.5 Z"/></g>
<g><path style="opacity:1" fill="#f3f3f3" d="M 8.5,12.5 C 9.16667,12.5 9.83333,12.5 10.5,12.5C 11.2389,12.369 11.9056,12.5357 12.5,13C 11.6195,13.7083 10.9528,14.5416 10.5,15.5C 10.5,16.8333 9.83333,17.5 8.5,17.5C 7.83333,16.1667 7.16667,14.8333 6.5,13.5C 6.84171,12.6618 7.50838,12.3284 8.5,12.5 Z"/></g>
<g><path style="opacity:1" fill="#f7f7f7" d="M 12.5,8.5 C 13.5,9.16667 14.5,9.83333 15.5,10.5C 14.748,12.1003 13.748,13.6003 12.5,15C 13.2524,15.6708 13.5858,16.5041 13.5,17.5C 12.5,16.8333 11.5,16.1667 10.5,15.5C 10.9528,14.5416 11.6195,13.7083 12.5,13C 11.9056,12.5357 11.2389,12.369 10.5,12.5C 11.1667,11.1667 11.8333,9.83333 12.5,8.5 Z"/></g>
<g><path style="opacity:1" fill="#ededed" d="M 52.5,11.5 C 52.8333,11.5 53.1667,11.5 53.5,11.5C 53.8417,12.3382 54.5084,12.6716 55.5,12.5C 55.9528,13.4584 56.6195,14.2917 57.5,15C 56.244,15.4169 55.5774,16.2502 55.5,17.5C 54.8333,17.5 54.1667,17.5 53.5,17.5C 53.1898,15.8564 52.1898,14.8564 50.5,14.5C 51.1667,13.5 51.8333,12.5 52.5,11.5 Z"/></g>
<g><path style="opacity:1" fill="#e7e7e7" d="M 59.5,8.5 C 60.5,8.5 61.5,8.5 62.5,8.5C 63.4602,10.4607 64.7935,12.1274 66.5,13.5C 64.8784,14.1224 63.5451,15.1224 62.5,16.5C 62.1667,16.5 61.8333,16.5 61.5,16.5C 61.0372,13.779 60.3705,11.1123 59.5,8.5 Z"/></g>
<g><path style="opacity:1" fill="#efefef" d="M 73.5,12.5 C 73.7822,13.7777 74.4489,14.7777 75.5,15.5C 73.5,16.8333 71.5,18.1667 69.5,19.5C 69.5,18.1667 68.8333,17.5 67.5,17.5C 67.1667,16.1667 66.8333,14.8333 66.5,13.5C 68.3841,13.2882 69.7174,12.2882 70.5,10.5C 71.2652,11.6119 72.2652,12.2786 73.5,12.5 Z"/></g>
<g><path style="opacity:1" fill="#fbfbfb" d="M 17.5,15.5 C 17.5,17.5 17.5,19.5 17.5,21.5C 16.8333,22.5 16.1667,23.5 15.5,24.5C 14.6371,23.0597 14.6371,21.7264 15.5,20.5C 14.3881,19.7348 13.7214,18.7348 13.5,17.5C 15.0744,17.0629 16.2411,16.0629 17,14.5C 17.3988,14.7284 17.5654,15.0618 17.5,15.5 Z"/></g>
<g><path style="opacity:1" fill="#595959" d="M 24.5,11.5 C 27.1123,12.3705 29.779,13.0372 32.5,13.5C 32.5,14.1667 32.8333,14.5 33.5,14.5C 34.1667,14.5 34.8333,14.5 35.5,14.5C 35.5,15.1667 35.5,15.8333 35.5,16.5C 33.2278,15.6814 30.8945,15.0147 28.5,14.5C 26.597,14.2041 24.9303,13.5375 23.5,12.5C 24.1667,12.5 24.5,12.1667 24.5,11.5 Z"/></g>
<g><path style="opacity:1" fill="#3a3a3a" d="M 51.5,11.5 C 51.8333,11.5 52.1667,11.5 52.5,11.5C 51.8333,12.5 51.1667,13.5 50.5,14.5C 49.5,14.8333 48.8333,15.5 48.5,16.5C 47.609,17.1098 46.609,17.4431 45.5,17.5C 47.1667,15.1667 49.1667,13.1667 51.5,11.5 Z"/></g>
<g><path style="opacity:1" fill="#f3f3f3" d="M 55.5,12.5 C 56.9643,13.4054 58.2976,13.4054 59.5,12.5C 59.6596,14.153 60.3263,15.4863 61.5,16.5C 61.5674,17.9587 61.2341,19.2921 60.5,20.5C 59.391,20.4431 58.391,20.1098 57.5,19.5C 56.1667,19.5 55.5,18.8333 55.5,17.5C 55.5774,16.2502 56.244,15.4169 57.5,15C 56.6195,14.2917 55.9528,13.4584 55.5,12.5 Z"/></g>
<g><path style="opacity:1" fill="#f7f7f7" d="M 1.5,15.5 C 3.44563,16.0347 4.44563,17.368 4.5,19.5C 3.54163,19.9528 2.7083,20.6195 2,21.5C 1.58309,20.244 0.749754,19.5774 -0.5,19.5C -0.5,18.8333 -0.5,18.1667 -0.5,17.5C 0.833333,17.5 1.5,16.8333 1.5,15.5 Z"/></g>
<g><path style="opacity:1" fill="#eeeeee" d="M 28.5,14.5 C 30.8945,15.0147 33.2278,15.6814 35.5,16.5C 36.4916,16.3284 37.1583,16.6618 37.5,17.5C 36.1667,17.5 35.5,18.1667 35.5,19.5C 34.1667,20.1667 32.8333,20.8333 31.5,21.5C 31.2252,19.1582 30.3919,19.1582 29,21.5C 28.5357,20.9056 28.369,20.2389 28.5,19.5C 28.5,18.8333 28.5,18.1667 28.5,17.5C 28.5,16.5 28.5,15.5 28.5,14.5 Z"/></g>
<g><path style="opacity:1" fill="#ececec" d="M 48.5,16.5 C 49.404,17.209 49.7373,18.209 49.5,19.5C 48.8333,19.5 48.5,19.8333 48.5,20.5C 47.1667,20.5 46.5,21.1667 46.5,22.5C 44.6275,21.1037 44.2942,19.437 45.5,17.5C 46.609,17.4431 47.609,17.1098 48.5,16.5 Z"/></g>
<g><path style="opacity:1" fill="#202020" d="M 61.5,16.5 C 61.8333,16.5 62.1667,16.5 62.5,16.5C 62.5569,17.609 62.8902,18.609 63.5,19.5C 62.5,20.1667 61.5,20.8333 60.5,21.5C 60.5,21.1667 60.5,20.8333 60.5,20.5C 61.2341,19.2921 61.5674,17.9587 61.5,16.5 Z"/></g>
<g><path style="opacity:1" fill="#eeeeee" d="M 10.5,15.5 C 11.5,16.1667 12.5,16.8333 13.5,17.5C 13.7214,18.7348 14.3881,19.7348 15.5,20.5C 14.6371,21.7264 14.6371,23.0597 15.5,24.5C 14.2223,24.7822 13.2223,25.4489 12.5,26.5C 12.4226,25.2502 11.756,24.4169 10.5,24C 13.1125,22.9288 13.1125,22.0955 10.5,21.5C 9.83333,20.1667 9.16667,18.8333 8.5,17.5C 9.83333,17.5 10.5,16.8333 10.5,15.5 Z"/></g>
<g><path style="opacity:1" fill="#efefef" d="M 28.5,17.5 C 28.5,18.1667 28.5,18.8333 28.5,19.5C 27.2652,19.7214 26.2652,20.3881 25.5,21.5C 24.7348,20.3881 23.7348,19.7214 22.5,19.5C 22.1231,17.742 21.4565,16.0754 20.5,14.5C 20.8333,14.1667 21.1667,13.8333 21.5,13.5C 24.0511,14.6042 26.3845,15.9375 28.5,17.5 Z"/></g>
<g><path style="opacity:1" fill="#f1f1f1" d="M 50.5,14.5 C 52.1898,14.8564 53.1898,15.8564 53.5,17.5C 52.9181,18.9311 52.0848,20.2644 51,21.5C 50.2828,20.9558 49.7828,20.2891 49.5,19.5C 49.7373,18.209 49.404,17.209 48.5,16.5C 48.8333,15.5 49.5,14.8333 50.5,14.5 Z"/></g>
<g><path style="opacity:1" fill="#f4f4f4" d="M 66.5,13.5 C 66.8333,14.8333 67.1667,16.1667 67.5,17.5C 67.1667,18.8333 66.8333,20.1667 66.5,21.5C 64.8212,21.7148 63.8212,21.0481 63.5,19.5C 62.8902,18.609 62.5569,17.609 62.5,16.5C 63.5451,15.1224 64.8784,14.1224 66.5,13.5 Z"/></g>
<g><path style="opacity:1" fill="#f2f2f2" d="M 80.5,19.5 C 80.5,20.8333 80.5,22.1667 80.5,23.5C 79.1667,23.8333 77.8333,24.1667 76.5,24.5C 76.5774,23.2502 77.244,22.4169 78.5,22C 77.244,21.5831 76.5774,20.7498 76.5,19.5C 76.1667,18.1667 75.8333,16.8333 75.5,15.5C 76.1515,14.9094 76.8182,14.2427 77.5,13.5C 77.9642,15.9749 78.9642,17.9749 80.5,19.5 Z"/></g>
<g><path style="opacity:1" fill="#f7f7f7" d="M 37.5,17.5 C 39.6957,17.5652 41.6957,18.2319 43.5,19.5C 42.6906,21.0709 42.3573,22.7376 42.5,24.5C 41.8365,22.9581 41.1698,21.2914 40.5,19.5C 39.7348,20.6119 38.7348,21.2786 37.5,21.5C 37.5,20.1667 36.8333,19.5 35.5,19.5C 35.5,18.1667 36.1667,17.5 37.5,17.5 Z"/></g>
<g><path style="opacity:1" fill="#1a1a1a" d="M 35.5,10.5 C 36.1667,12.1667 36.8333,13.8333 37.5,15.5C 39.7014,16.5664 42.0347,17.233 44.5,17.5C 44.8333,17.5 45.1667,17.5 45.5,17.5C 44.2942,19.437 44.6275,21.1037 46.5,22.5C 47.4608,25.4261 48.1274,28.4261 48.5,31.5C 46.8714,29.1423 45.7048,26.4757 45,23.5C 44.5017,26.8168 44.335,30.1501 44.5,33.5C 44.1872,37.0419 44.5206,40.3752 45.5,43.5C 45.5,43.8333 45.5,44.1667 45.5,44.5C 45.1583,45.3382 44.4916,45.6716 43.5,45.5C 43.5,44.8333 43.5,44.1667 43.5,43.5C 43.5,38.5 43.5,33.5 43.5,28.5C 43.4431,27.391 43.1098,26.391 42.5,25.5C 42.5,25.1667 42.5,24.8333 42.5,24.5C 42.3573,22.7376 42.6906,21.0709 43.5,19.5C 41.6957,18.2319 39.6957,17.5652 37.5,17.5C 37.1583,16.6618 36.4916,16.3284 35.5,16.5C 35.5,15.8333 35.5,15.1667 35.5,14.5C 35.5,13.1667 35.5,11.8333 35.5,10.5 Z"/></g>
<g><path style="opacity:1" fill="#f6f6f6" d="M 75.5,15.5 C 75.8333,16.8333 76.1667,18.1667 76.5,19.5C 75.5,20.5 74.5,21.5 73.5,22.5C 71.368,22.4456 70.0347,21.4456 69.5,19.5C 71.5,18.1667 73.5,16.8333 75.5,15.5 Z"/></g>
<g><path style="opacity:1" fill="#f6f6f6" d="M 8.5,17.5 C 9.16667,18.8333 9.83333,20.1667 10.5,21.5C 9.16667,22.1667 7.83333,22.8333 6.5,23.5C 6.5,22.1667 5.83333,21.5 4.5,21.5C 4.5,20.8333 4.5,20.1667 4.5,19.5C 5.83333,18.8333 7.16667,18.1667 8.5,17.5 Z"/></g>
<g><path style="opacity:1" fill="#f6f6f6" d="M 53.5,17.5 C 54.1667,17.5 54.8333,17.5 55.5,17.5C 55.5,18.8333 56.1667,19.5 57.5,19.5C 56.0837,21.1793 54.7503,22.8459 53.5,24.5C 51.9139,23.5868 50.4139,23.5868 49,24.5C 49.3554,23.0406 49.1888,21.7072 48.5,20.5C 48.5,19.8333 48.8333,19.5 49.5,19.5C 49.7828,20.2891 50.2828,20.9558 51,21.5C 52.0848,20.2644 52.9181,18.9311 53.5,17.5 Z"/></g>
<g><path style="opacity:1" fill="#f5f5f5" d="M 67.5,17.5 C 68.8333,17.5 69.5,18.1667 69.5,19.5C 70.0347,21.4456 71.368,22.4456 73.5,22.5C 74.3764,22.3691 75.0431,22.7025 75.5,23.5C 74.3881,24.2652 73.7214,25.2652 73.5,26.5C 72.1667,25.8333 70.8333,25.1667 69.5,24.5C 68.8333,23.1667 67.8333,22.1667 66.5,21.5C 66.8333,20.1667 67.1667,18.8333 67.5,17.5 Z"/></g>
<g><path style="opacity:1" fill="#e4e4e4" d="M 57.5,19.5 C 58.391,20.1098 59.391,20.4431 60.5,20.5C 60.5,20.8333 60.5,21.1667 60.5,21.5C 58.4265,22.2995 56.7598,23.6329 55.5,25.5C 55.1583,24.6618 54.4916,24.3284 53.5,24.5C 54.7503,22.8459 56.0837,21.1793 57.5,19.5 Z"/></g>
<g><path style="opacity:1" fill="#f1f1f1" d="M -0.5,19.5 C 0.749754,19.5774 1.58309,20.244 2,21.5C 2.7083,20.6195 3.54163,19.9528 4.5,19.5C 4.5,20.1667 4.5,20.8333 4.5,21.5C 3.54885,22.9187 3.21552,24.5853 3.5,26.5C 2.16667,27.1667 0.833333,27.8333 -0.5,28.5C -0.5,25.5 -0.5,22.5 -0.5,19.5 Z"/></g>
<g><path style="opacity:1" fill="#f2f2f2" d="M 4.5,21.5 C 5.83333,21.5 6.5,22.1667 6.5,23.5C 5.90935,24.1515 5.24269,24.8182 4.5,25.5C 5.61191,26.2652 6.27858,27.2652 6.5,28.5C 5.83333,28.5 5.16667,28.5 4.5,28.5C 3.66175,28.1583 3.32842,27.4916 3.5,26.5C 3.21552,24.5853 3.54885,22.9187 4.5,21.5 Z"/></g>
<g><path style="opacity:1" fill="#f2f2f2" d="M 22.5,19.5 C 23.7348,19.7214 24.7348,20.3881 25.5,21.5C 26.2652,20.3881 27.2652,19.7214 28.5,19.5C 28.369,20.2389 28.5357,20.9056 29,21.5C 30.3919,19.1582 31.2252,19.1582 31.5,21.5C 32.5511,22.2223 33.2178,23.2223 33.5,24.5C 32.2502,24.5774 31.4169,25.244 31,26.5C 30.323,24.311 29.1563,23.9776 27.5,25.5C 25.1419,24.8461 23.4752,23.5128 22.5,21.5C 22.5,20.8333 22.5,20.1667 22.5,19.5 Z"/></g>
<g><path style="opacity:1" fill="#f4f4f4" d="M 35.5,19.5 C 36.8333,19.5 37.5,20.1667 37.5,21.5C 38.1667,22.5 38.8333,23.5 39.5,24.5C 37.5,23.1667 35.5,23.1667 33.5,24.5C 33.2178,23.2223 32.5511,22.2223 31.5,21.5C 32.8333,20.8333 34.1667,20.1667 35.5,19.5 Z"/></g>
<g><path style="opacity:1" fill="#f1f1f1" d="M 63.5,19.5 C 63.8212,21.0481 64.8212,21.7148 66.5,21.5C 65.9653,23.4456 64.632,24.4456 62.5,24.5C 61.8826,24.6107 61.3826,24.944 61,25.5C 60.7216,24.5842 60.2216,23.9175 59.5,23.5C 59.8333,22.8333 60.1667,22.1667 60.5,21.5C 61.5,20.8333 62.5,20.1667 63.5,19.5 Z"/></g>
<g><path style="opacity:1" fill="#f7f7f7" d="M 18.5,19.5 C 19.552,19.3505 20.552,19.5172 21.5,20C 18.8696,22.3547 19.203,22.8547 22.5,21.5C 23.4752,23.5128 25.1419,24.8461 27.5,25.5C 29.1563,23.9776 30.323,24.311 31,26.5C 31.4169,25.244 32.2502,24.5774 33.5,24.5C 34.1667,26.5 35.5,27.8333 37.5,28.5C 36.791,29.404 35.791,29.7373 34.5,29.5C 30.8333,28.1667 27.1667,26.8333 23.5,25.5C 22.3285,24.6554 20.9952,23.9887 19.5,23.5C 18.5655,22.4324 18.2322,21.099 18.5,19.5 Z"/></g>
<g><path style="opacity:1" fill="#f1f1f1" d="M 10.5,21.5 C 13.1125,22.0955 13.1125,22.9288 10.5,24C 11.756,24.4169 12.4226,25.2502 12.5,26.5C 11.1667,26.5 10.5,27.1667 10.5,28.5C 10.5,29.8333 9.83333,30.5 8.5,30.5C 7.16667,30.5 6.5,29.8333 6.5,28.5C 6.27858,27.2652 5.61191,26.2652 4.5,25.5C 5.24269,24.8182 5.90935,24.1515 6.5,23.5C 7.83333,22.8333 9.16667,22.1667 10.5,21.5 Z"/></g>
<g><path style="opacity:1" fill="#ededed" d="M 39.5,24.5 C 38.3995,25.6049 37.7329,26.9382 37.5,28.5C 35.5,27.8333 34.1667,26.5 33.5,24.5C 35.5,23.1667 37.5,23.1667 39.5,24.5 Z"/></g>
<g><path style="opacity:1" fill="#efefef" d="M 42.5,24.5 C 42.5,24.8333 42.5,25.1667 42.5,25.5C 41.5386,27.2646 41.2053,29.2646 41.5,31.5C 39.7085,31.634 38.0418,31.3007 36.5,30.5C 35.5084,30.6716 34.8417,30.3382 34.5,29.5C 35.791,29.7373 36.791,29.404 37.5,28.5C 37.7329,26.9382 38.3995,25.6049 39.5,24.5C 38.8333,23.5 38.1667,22.5 37.5,21.5C 38.7348,21.2786 39.7348,20.6119 40.5,19.5C 41.1698,21.2914 41.8365,22.9581 42.5,24.5 Z"/></g>
<g><path style="opacity:1" fill="#efefef" d="M 48.5,20.5 C 49.1888,21.7072 49.3554,23.0406 49,24.5C 50.4139,23.5868 51.9139,23.5868 53.5,24.5C 54.4916,24.3284 55.1583,24.6618 55.5,25.5C 53.7607,28.2427 51.4274,30.2427 48.5,31.5C 48.1274,28.4261 47.4608,25.4261 46.5,22.5C 46.5,21.1667 47.1667,20.5 48.5,20.5 Z"/></g>
<g><path style="opacity:1" fill="#ededed" d="M 76.5,19.5 C 76.5774,20.7498 77.244,21.5831 78.5,22C 77.244,22.4169 76.5774,23.2502 76.5,24.5C 76.5,25.8333 76.5,27.1667 76.5,28.5C 75.7777,27.4489 74.7777,26.7822 73.5,26.5C 73.7214,25.2652 74.3881,24.2652 75.5,23.5C 75.0431,22.7025 74.3764,22.3691 73.5,22.5C 74.5,21.5 75.5,20.5 76.5,19.5 Z"/></g>
<g><path style="opacity:1" fill="#f0f0f0" d="M 80.5,23.5 C 80.5,25.1667 80.5,26.8333 80.5,28.5C 79.1667,29.1667 77.8333,29.8333 76.5,30.5C 76.5,29.8333 76.5,29.1667 76.5,28.5C 76.5,27.1667 76.5,25.8333 76.5,24.5C 77.8333,24.1667 79.1667,23.8333 80.5,23.5 Z"/></g>
<g><path style="opacity:1" fill="#5e5e5e" d="M 60.5,21.5 C 60.1667,22.1667 59.8333,22.8333 59.5,23.5C 59.8016,26.0593 59.4682,28.3926 58.5,30.5C 58.7678,28.901 58.4345,27.5676 57.5,26.5C 54.8333,28.5 52.5,30.8333 50.5,33.5C 49.1667,33.5 48.5,32.8333 48.5,31.5C 51.4274,30.2427 53.7607,28.2427 55.5,25.5C 56.7598,23.6329 58.4265,22.2995 60.5,21.5 Z"/></g>
<g><path style="opacity:1" fill="#f6f6f6" d="M 3.5,26.5 C 3.32842,27.4916 3.66175,28.1583 4.5,28.5C 4.16667,29.8333 3.83333,31.1667 3.5,32.5C 2.39514,31.3995 1.06181,30.7329 -0.5,30.5C -0.5,29.8333 -0.5,29.1667 -0.5,28.5C 0.833333,27.8333 2.16667,27.1667 3.5,26.5 Z"/></g>
<g><path style="opacity:1" fill="#eaeaea" d="M 17.5,21.5 C 17.2852,23.1788 17.9519,24.1788 19.5,24.5C 19.5,24.8333 19.5,25.1667 19.5,25.5C 16.5159,25.7868 15.1826,27.4535 15.5,30.5C 15.6309,31.3764 15.2975,32.0431 14.5,32.5C 13.5905,30.6253 12.2572,29.292 10.5,28.5C 10.5,27.1667 11.1667,26.5 12.5,26.5C 13.2223,25.4489 14.2223,24.7822 15.5,24.5C 16.1667,23.5 16.8333,22.5 17.5,21.5 Z"/></g>
<g><path style="opacity:1" fill="#f2f2f2" d="M 22.5,26.5 C 25.7442,27.4629 28.7442,28.7962 31.5,30.5C 30.4502,30.9046 30.4502,31.5712 31.5,32.5C 31.0431,33.2975 30.3764,33.6309 29.5,33.5C 27.3813,32.5452 25.7147,33.2119 24.5,35.5C 24.1667,35.5 23.8333,35.5 23.5,35.5C 22.5975,32.6085 22.2641,29.6085 22.5,26.5 Z"/></g>
<g><path style="opacity:1" fill="#272727" d="M 22.5,26.5 C 22.5,25.8333 22.8333,25.5 23.5,25.5C 27.1667,26.8333 30.8333,28.1667 34.5,29.5C 34.8417,30.3382 35.5084,30.6716 36.5,30.5C 36.5,31.1667 36.1667,31.5 35.5,31.5C 34.1667,31.1667 32.8333,30.8333 31.5,30.5C 28.7442,28.7962 25.7442,27.4629 22.5,26.5 Z"/></g>
<g><path style="opacity:1" fill="#eeeeee" d="M 66.5,21.5 C 67.8333,22.1667 68.8333,23.1667 69.5,24.5C 67.5544,25.0347 66.5544,26.368 66.5,28.5C 65.8333,28.5 65.1667,28.5 64.5,28.5C 63.8333,27.1667 63.1667,25.8333 62.5,24.5C 64.632,24.4456 65.9653,23.4456 66.5,21.5 Z"/></g>
<g><path style="opacity:1" fill="#f0f0f0" d="M 69.5,24.5 C 70.8333,25.1667 72.1667,25.8333 73.5,26.5C 72.8333,27.8333 72.1667,29.1667 71.5,30.5C 68.6981,33.4158 67.0314,32.7491 66.5,28.5C 66.5544,26.368 67.5544,25.0347 69.5,24.5 Z"/></g>
<g><path style="opacity:1" fill="#f7f7f7" d="M 73.5,26.5 C 74.7777,26.7822 75.7777,27.4489 76.5,28.5C 76.5,29.1667 76.5,29.8333 76.5,30.5C 75.7784,30.9175 75.2784,31.5842 75,32.5C 74.1841,31.1772 73.0174,30.5106 71.5,30.5C 72.1667,29.1667 72.8333,27.8333 73.5,26.5 Z"/></g>
<g><path style="opacity:1" fill="#4f4f4f" d="M 19.5,23.5 C 20.9952,23.9887 22.3285,24.6554 23.5,25.5C 22.8333,25.5 22.5,25.8333 22.5,26.5C 22.2641,29.6085 22.5975,32.6085 23.5,35.5C 22.5041,35.5858 21.6708,35.2524 21,34.5C 20.8195,31.3054 20.3195,28.3054 19.5,25.5C 19.5,25.1667 19.5,24.8333 19.5,24.5C 19.5,24.1667 19.5,23.8333 19.5,23.5 Z"/></g>
<g><path style="opacity:1" fill="#ededed" d="M 48.5,31.5 C 48.5,32.8333 49.1667,33.5 50.5,33.5C 50.5,33.8333 50.5,34.1667 50.5,34.5C 49.1779,34.33 48.0113,34.6634 47,35.5C 46.5831,34.244 45.7498,33.5774 44.5,33.5C 44.335,30.1501 44.5017,26.8168 45,23.5C 45.7048,26.4757 46.8714,29.1423 48.5,31.5 Z"/></g>
<g><path style="opacity:1" fill="#e2e2e2" d="M 19.5,25.5 C 20.3195,28.3054 20.8195,31.3054 21,34.5C 21.6708,35.2524 22.5041,35.5858 23.5,35.5C 23.8333,35.5 24.1667,35.5 24.5,35.5C 25.1667,35.5 25.5,35.8333 25.5,36.5C 23.901,36.2322 22.5676,36.5655 21.5,37.5C 20.8333,37.5 20.1667,37.5 19.5,37.5C 19.2786,36.2652 18.6119,35.2652 17.5,34.5C 18.4415,34.5105 19.1081,34.0105 19.5,33C 18.6443,31.4053 17.3109,30.572 15.5,30.5C 15.1826,27.4535 16.5159,25.7868 19.5,25.5 Z"/></g>
<g><path style="opacity:1" fill="#f9f9f9" d="M 59.5,23.5 C 60.2216,23.9175 60.7216,24.5842 61,25.5C 61.3826,24.944 61.8826,24.6107 62.5,24.5C 63.1667,25.8333 63.8333,27.1667 64.5,28.5C 63.1667,28.5 62.5,29.1667 62.5,30.5C 59.8646,31.8109 57.5313,33.4776 55.5,35.5C 55.1667,35.5 54.8333,35.5 54.5,35.5C 55.8333,33.8333 57.1667,32.1667 58.5,30.5C 59.4682,28.3926 59.8016,26.0593 59.5,23.5 Z"/></g>
<g><path style="opacity:1" fill="#f6f6f6" d="M 80.5,28.5 C 80.5,31.5 80.5,34.5 80.5,37.5C 79.1667,36.8333 77.8333,36.1667 76.5,35.5C 76.5774,34.2502 77.244,33.4169 78.5,33C 77.244,32.5831 76.5774,31.7498 76.5,30.5C 77.8333,29.8333 79.1667,29.1667 80.5,28.5 Z"/></g>
<g><path style="opacity:1" fill="#f0f0f0" d="M 4.5,28.5 C 5.16667,28.5 5.83333,28.5 6.5,28.5C 6.5,29.8333 7.16667,30.5 8.5,30.5C 8.0472,31.4584 7.38053,32.2917 6.5,33C 7.98138,33.9803 9.31471,35.147 10.5,36.5C 10.0431,37.2975 9.37644,37.6309 8.5,37.5C 7.16667,36.8333 5.83333,36.1667 4.5,35.5C 4.73731,34.209 4.40397,33.209 3.5,32.5C 3.83333,31.1667 4.16667,29.8333 4.5,28.5 Z"/></g>
<g><path style="opacity:1" fill="#f4f4f4" d="M 10.5,28.5 C 12.2572,29.292 13.5905,30.6253 14.5,32.5C 15.2975,32.0431 15.6309,31.3764 15.5,30.5C 17.3109,30.572 18.6443,31.4053 19.5,33C 19.1081,34.0105 18.4415,34.5105 17.5,34.5C 18.6119,35.2652 19.2786,36.2652 19.5,37.5C 19.5,38.8333 18.8333,39.5 17.5,39.5C 16.2652,39.7214 15.2652,40.3881 14.5,41.5C 13.8076,40.9747 13.3076,40.3081 13,39.5C 12.5831,40.756 11.7498,41.4226 10.5,41.5C 10.5,40.1667 9.83333,39.5 8.5,39.5C 8.5,38.8333 8.5,38.1667 8.5,37.5C 9.37644,37.6309 10.0431,37.2975 10.5,36.5C 9.31471,35.147 7.98138,33.9803 6.5,33C 7.38053,32.2917 8.0472,31.4584 8.5,30.5C 9.83333,30.5 10.5,29.8333 10.5,28.5 Z"/></g>
<g><path style="opacity:1" fill="#4a4a4a" d="M 42.5,25.5 C 43.1098,26.391 43.4431,27.391 43.5,28.5C 42.5489,29.9187 42.2155,31.5853 42.5,33.5C 40.139,33.3259 37.8056,32.9926 35.5,32.5C 35.5,32.1667 35.5,31.8333 35.5,31.5C 36.1667,31.5 36.5,31.1667 36.5,30.5C 38.0418,31.3007 39.7085,31.634 41.5,31.5C 41.2053,29.2646 41.5386,27.2646 42.5,25.5 Z"/></g>
<g><path style="opacity:1" fill="#f4f4f4" d="M 64.5,28.5 C 65.1667,28.5 65.8333,28.5 66.5,28.5C 67.0314,32.7491 68.6981,33.4158 71.5,30.5C 72.7847,32.4516 74.4514,34.1182 76.5,35.5C 76.6716,36.4916 76.3382,37.1583 75.5,37.5C 74.1667,38.1667 72.8333,38.8333 71.5,39.5C 70.2652,39.7214 69.2652,40.3881 68.5,41.5C 67.8076,40.9747 67.3076,40.3081 67,39.5C 66.5831,40.756 65.7498,41.4226 64.5,41.5C 64.5,40.1667 63.8333,39.5 62.5,39.5C 62.7214,38.2652 63.3881,37.2652 64.5,36.5C 61.972,35.4826 61.972,34.3159 64.5,33C 63.1667,33 61.8333,33 60.5,33C 61.3805,32.2917 62.0472,31.4584 62.5,30.5C 62.5,29.1667 63.1667,28.5 64.5,28.5 Z"/></g>
<g><path style="opacity:1" fill="#f2f2f2" d="M 57.5,26.5 C 57.1507,30.5302 55.1507,33.5302 51.5,35.5C 50.8333,35.5 50.5,35.1667 50.5,34.5C 50.5,34.1667 50.5,33.8333 50.5,33.5C 52.5,30.8333 54.8333,28.5 57.5,26.5 Z"/></g>
<g><path style="opacity:1" fill="#eeeeee" d="M -0.5,30.5 C 1.06181,30.7329 2.39514,31.3995 3.5,32.5C 4.40397,33.209 4.73731,34.209 4.5,35.5C 3.5,36.1667 2.5,36.8333 1.5,37.5C 3.30109,34.7742 2.63442,33.1076 -0.5,32.5C -0.5,31.8333 -0.5,31.1667 -0.5,30.5 Z"/></g>
<g><path style="opacity:1" fill="#f0f0f0" d="M 29.5,33.5 C 30.9418,34.8195 31.6085,36.4862 31.5,38.5C 29.7028,37.2702 27.7028,36.6036 25.5,36.5C 25.5,35.8333 25.1667,35.5 24.5,35.5C 25.7147,33.2119 27.3813,32.5452 29.5,33.5 Z"/></g>
<g><path style="opacity:1" fill="#eeeeee" d="M 35.5,32.5 C 37.8056,32.9926 40.139,33.3259 42.5,33.5C 42.0825,34.2216 41.4158,34.7216 40.5,35C 41.3081,35.3076 41.9747,35.8076 42.5,36.5C 40.9178,38.0147 39.5845,39.6814 38.5,41.5C 36.847,41.3404 35.5137,40.6737 34.5,39.5C 35.0431,39.44 35.3764,39.1067 35.5,38.5C 34.1152,37.4495 33.1152,36.1161 32.5,34.5C 33.0047,33.0815 34.0047,32.4148 35.5,32.5 Z"/></g>
<g><path style="opacity:1" fill="#ededed" d="M 71.5,30.5 C 73.0174,30.5106 74.1841,31.1772 75,32.5C 75.2784,31.5842 75.7784,30.9175 76.5,30.5C 76.5774,31.7498 77.244,32.5831 78.5,33C 77.244,33.4169 76.5774,34.2502 76.5,35.5C 74.4514,34.1182 72.7847,32.4516 71.5,30.5 Z"/></g>
<g><path style="opacity:1" fill="#f6f6f6" d="M 31.5,30.5 C 32.8333,30.8333 34.1667,31.1667 35.5,31.5C 35.5,31.8333 35.5,32.1667 35.5,32.5C 34.0047,32.4148 33.0047,33.0815 32.5,34.5C 33.1152,36.1161 34.1152,37.4495 35.5,38.5C 35.3764,39.1067 35.0431,39.44 34.5,39.5C 33.391,39.4431 32.391,39.1098 31.5,38.5C 31.6085,36.4862 30.9418,34.8195 29.5,33.5C 30.3764,33.6309 31.0431,33.2975 31.5,32.5C 30.4502,31.5712 30.4502,30.9046 31.5,30.5 Z"/></g>
<g><path style="opacity:1" fill="#f4f4f4" d="M 44.5,33.5 C 45.7498,33.5774 46.5831,34.244 47,35.5C 48.0113,34.6634 49.1779,34.33 50.5,34.5C 50.5,35.1667 50.8333,35.5 51.5,35.5C 49.1153,37.8838 47.1153,40.5505 45.5,43.5C 44.5206,40.3752 44.1872,37.0419 44.5,33.5 Z"/></g>
<g><path style="opacity:1" fill="#f9f9f9" d="M 54.5,35.5 C 54.8333,35.5 55.1667,35.5 55.5,35.5C 55.5,36.1667 55.5,36.8333 55.5,37.5C 54.1667,37.5 53.5,38.1667 53.5,39.5C 51.1582,39.7748 51.1582,40.6081 53.5,42C 52.9056,42.4643 52.2389,42.631 51.5,42.5C 50.8902,41.609 50.5569,40.609 50.5,39.5C 51.5,37.8333 52.8333,36.5 54.5,35.5 Z"/></g>
<g><path style="opacity:1" fill="#eeeeee" d="M 62.5,30.5 C 62.0472,31.4584 61.3805,32.2917 60.5,33C 61.8333,33 63.1667,33 64.5,33C 61.972,34.3159 61.972,35.4826 64.5,36.5C 63.3881,37.2652 62.7214,38.2652 62.5,39.5C 61.2652,39.2786 60.2652,38.6119 59.5,37.5C 58.8076,38.0253 58.3076,38.6919 58,39.5C 57.5831,38.244 56.7498,37.5774 55.5,37.5C 55.5,36.8333 55.5,36.1667 55.5,35.5C 57.5313,33.4776 59.8646,31.8109 62.5,30.5 Z"/></g>
<g><path style="opacity:1" fill="#323232" d="M 57.5,26.5 C 58.4345,27.5676 58.7678,28.901 58.5,30.5C 57.1667,32.1667 55.8333,33.8333 54.5,35.5C 52.8333,36.5 51.5,37.8333 50.5,39.5C 49.0613,41.3603 47.3947,43.027 45.5,44.5C 45.5,44.1667 45.5,43.8333 45.5,43.5C 47.1153,40.5505 49.1153,37.8838 51.5,35.5C 55.1507,33.5302 57.1507,30.5302 57.5,26.5 Z"/></g>
<g><path style="opacity:1" fill="#efefef" d="M 76.5,35.5 C 77.8333,36.1667 79.1667,36.8333 80.5,37.5C 80.5,38.1667 80.5,38.8333 80.5,39.5C 79.1667,40.1667 77.8333,40.8333 76.5,41.5C 76.1667,40.1667 75.8333,38.8333 75.5,37.5C 76.3382,37.1583 76.6716,36.4916 76.5,35.5 Z"/></g>
<g><path style="opacity:1" fill="#eeeeee" d="M 4.5,35.5 C 5.83333,36.1667 7.16667,36.8333 8.5,37.5C 8.5,38.1667 8.5,38.8333 8.5,39.5C 7.16667,39.5 6.5,40.1667 6.5,41.5C 3.53279,40.2376 2.86613,38.2376 4.5,35.5 Z"/></g>
<g><path style="opacity:1" fill="#f7f7f7" d="M 43.5,28.5 C 43.5,33.5 43.5,38.5 43.5,43.5C 41.7162,43.1075 40.0495,42.4408 38.5,41.5C 39.5845,39.6814 40.9178,38.0147 42.5,36.5C 41.9747,35.8076 41.3081,35.3076 40.5,35C 41.4158,34.7216 42.0825,34.2216 42.5,33.5C 42.2155,31.5853 42.5489,29.9187 43.5,28.5 Z"/></g>
<g><path style="opacity:1" fill="#f6f6f6" d="M 75.5,37.5 C 75.8333,38.8333 76.1667,40.1667 76.5,41.5C 75.609,42.1098 74.609,42.4431 73.5,42.5C 72.4489,41.7777 71.7822,40.7777 71.5,39.5C 72.8333,38.8333 74.1667,38.1667 75.5,37.5 Z"/></g>
<g><path style="opacity:1" fill="#f6f6f6" d="M 19.5,37.5 C 20.1667,37.5 20.8333,37.5 21.5,37.5C 21.7375,39.9295 21.7375,42.2629 21.5,44.5C 20.0837,42.8207 18.7503,41.1541 17.5,39.5C 18.8333,39.5 19.5,38.8333 19.5,37.5 Z"/></g>
<g><path style="opacity:1" fill="#393939" d="M 25.5,36.5 C 27.7028,36.6036 29.7028,37.2702 31.5,38.5C 32.391,39.1098 33.391,39.4431 34.5,39.5C 35.5137,40.6737 36.847,41.3404 38.5,41.5C 40.0495,42.4408 41.7162,43.1075 43.5,43.5C 43.5,44.1667 43.5,44.8333 43.5,45.5C 41.2487,44.3052 38.9154,43.3052 36.5,42.5C 35.609,41.8902 34.609,41.5569 33.5,41.5C 30.8333,39.8333 28.1667,38.1667 25.5,36.5 Z"/></g>
<g><path style="opacity:1" fill="#f1f1f1" d="M -0.5,32.5 C 2.63442,33.1076 3.30109,34.7742 1.5,37.5C 1.51056,39.0174 2.17723,40.1841 3.5,41C 2.5842,41.2784 1.91753,41.7784 1.5,42.5C 0.833333,42.5 0.166667,42.5 -0.5,42.5C -0.5,39.1667 -0.5,35.8333 -0.5,32.5 Z"/></g>
<g><path style="opacity:1" fill="#f7f7f7" d="M 4.5,35.5 C 2.86613,38.2376 3.53279,40.2376 6.5,41.5C 5.83333,42.8333 4.83333,43.8333 3.5,44.5C 3.16667,43.5 2.5,42.8333 1.5,42.5C 1.91753,41.7784 2.5842,41.2784 3.5,41C 2.17723,40.1841 1.51056,39.0174 1.5,37.5C 2.5,36.8333 3.5,36.1667 4.5,35.5 Z"/></g>
<g><path style="opacity:1" fill="#efefef" d="M 17.5,39.5 C 18.7503,41.1541 20.0837,42.8207 21.5,44.5C 21.5,45.1667 21.5,45.8333 21.5,46.5C 20.1667,46.5 18.8333,46.5 17.5,46.5C 16.9344,44.9217 15.9344,43.5884 14.5,42.5C 13.8076,43.0253 13.3076,43.6919 13,44.5C 12.7216,43.5842 12.2216,42.9175 11.5,42.5C 10.8333,42.5 10.5,42.1667 10.5,41.5C 11.7498,41.4226 12.5831,40.756 13,39.5C 13.3076,40.3081 13.8076,40.9747 14.5,41.5C 15.2652,40.3881 16.2652,39.7214 17.5,39.5 Z"/></g>
<g><path style="opacity:1" fill="#f2f2f2" d="M 55.5,37.5 C 56.7498,37.5774 57.5831,38.244 58,39.5C 58.3076,38.6919 58.8076,38.0253 59.5,37.5C 60.2652,38.6119 61.2652,39.2786 62.5,39.5C 63.8333,39.5 64.5,40.1667 64.5,41.5C 62.1582,41.7748 62.1582,42.6081 64.5,44C 63.244,44.4169 62.5774,45.2502 62.5,46.5C 60.1667,46.5 57.8333,46.5 55.5,46.5C 55.5394,45.4168 55.8728,44.4168 56.5,43.5C 55.4756,42.1482 54.4756,40.8149 53.5,39.5C 53.5,38.1667 54.1667,37.5 55.5,37.5 Z"/></g>
<g><path style="opacity:1" fill="#f0f0f0" d="M 33.5,41.5 C 32.3984,43.0919 33.065,43.9252 35.5,44C 34.244,44.4169 33.5774,45.2502 33.5,46.5C 31.8333,46.5 30.1667,46.5 28.5,46.5C 28.5,45.1667 29.1667,44.5 30.5,44.5C 31.1001,43.0998 32.1001,42.0998 33.5,41.5 Z"/></g>
<g><path style="opacity:1" fill="#f2f2f2" d="M 80.5,39.5 C 80.5,41.8333 80.5,44.1667 80.5,46.5C 77.5,46.5 74.5,46.5 71.5,46.5C 71.5,45.8333 71.5,45.1667 71.5,44.5C 71.5,43.1667 72.1667,42.5 73.5,42.5C 74.609,42.4431 75.609,42.1098 76.5,41.5C 77.8333,40.8333 79.1667,40.1667 80.5,39.5 Z"/></g>
<g><path style="opacity:1" fill="#efefef" d="M 8.5,39.5 C 9.83333,39.5 10.5,40.1667 10.5,41.5C 6.55433,42.3452 5.88766,44.0118 8.5,46.5C 6.83333,46.5 5.16667,46.5 3.5,46.5C 3.5,45.8333 3.5,45.1667 3.5,44.5C 4.83333,43.8333 5.83333,42.8333 6.5,41.5C 6.5,40.1667 7.16667,39.5 8.5,39.5 Z"/></g>
<g><path style="opacity:1" fill="#f6f6f6" d="M 10.5,41.5 C 10.5,42.1667 10.8333,42.5 11.5,42.5C 11.1667,43.8333 10.8333,45.1667 10.5,46.5C 9.83333,46.5 9.16667,46.5 8.5,46.5C 5.88766,44.0118 6.55433,42.3452 10.5,41.5 Z"/></g>
<g><path style="opacity:1" fill="#efefef" d="M 25.5,36.5 C 28.1667,38.1667 30.8333,39.8333 33.5,41.5C 32.1001,42.0998 31.1001,43.0998 30.5,44.5C 29.0685,41.1267 27.0685,40.7934 24.5,43.5C 25.6119,44.2652 26.2786,45.2652 26.5,46.5C 24.8333,46.5 23.1667,46.5 21.5,46.5C 21.5,45.8333 21.5,45.1667 21.5,44.5C 21.7375,42.2629 21.7375,39.9295 21.5,37.5C 22.5676,36.5655 23.901,36.2322 25.5,36.5 Z"/></g>
<g><path style="opacity:1" fill="#f7f7f7" d="M 30.5,44.5 C 29.1667,44.5 28.5,45.1667 28.5,46.5C 27.8333,46.5 27.1667,46.5 26.5,46.5C 26.2786,45.2652 25.6119,44.2652 24.5,43.5C 27.0685,40.7934 29.0685,41.1267 30.5,44.5 Z"/></g>
<g><path style="opacity:1" fill="#f5f5f5" d="M 33.5,41.5 C 34.609,41.5569 35.609,41.8902 36.5,42.5C 37.5,43.8333 38.5,45.1667 39.5,46.5C 37.5,46.5 35.5,46.5 33.5,46.5C 33.5774,45.2502 34.244,44.4169 35.5,44C 33.065,43.9252 32.3984,43.0919 33.5,41.5 Z"/></g>
<g><path style="opacity:1" fill="#ededed" d="M 53.5,39.5 C 54.4756,40.8149 55.4756,42.1482 56.5,43.5C 55.8728,44.4168 55.5394,45.4168 55.5,46.5C 54.8333,46.5 54.1667,46.5 53.5,46.5C 52.8333,45.1667 52.1667,43.8333 51.5,42.5C 52.2389,42.631 52.9056,42.4643 53.5,42C 51.1582,40.6081 51.1582,39.7748 53.5,39.5 Z"/></g>
<g><path style="opacity:1" fill="#f6f6f6" d="M 64.5,41.5 C 65.4687,42.3094 66.3021,43.3094 67,44.5C 67.3076,43.6919 67.8076,43.0253 68.5,42.5C 69.2652,43.6119 70.2652,44.2786 71.5,44.5C 71.5,45.1667 71.5,45.8333 71.5,46.5C 68.5,46.5 65.5,46.5 62.5,46.5C 62.5774,45.2502 63.244,44.4169 64.5,44C 62.1582,42.6081 62.1582,41.7748 64.5,41.5 Z"/></g>
<g><path style="opacity:1" fill="#ededed" d="M 71.5,39.5 C 71.7822,40.7777 72.4489,41.7777 73.5,42.5C 72.1667,42.5 71.5,43.1667 71.5,44.5C 70.2652,44.2786 69.2652,43.6119 68.5,42.5C 67.8076,43.0253 67.3076,43.6919 67,44.5C 66.3021,43.3094 65.4687,42.3094 64.5,41.5C 65.7498,41.4226 66.5831,40.756 67,39.5C 67.3076,40.3081 67.8076,40.9747 68.5,41.5C 69.2652,40.3881 70.2652,39.7214 71.5,39.5 Z"/></g>
<g><path style="opacity:1" fill="#f3f3f3" d="M 50.5,39.5 C 50.5569,40.609 50.8902,41.609 51.5,42.5C 52.1667,43.8333 52.8333,45.1667 53.5,46.5C 48.8333,46.5 44.1667,46.5 39.5,46.5C 38.5,45.1667 37.5,43.8333 36.5,42.5C 38.9154,43.3052 41.2487,44.3052 43.5,45.5C 44.4916,45.6716 45.1583,45.3382 45.5,44.5C 47.3947,43.027 49.0613,41.3603 50.5,39.5 Z"/></g>
<g><path style="opacity:1" fill="#f3f3f3" d="M -0.5,42.5 C 0.166667,42.5 0.833333,42.5 1.5,42.5C 2.5,42.8333 3.16667,43.5 3.5,44.5C 3.5,45.1667 3.5,45.8333 3.5,46.5C 2.16667,46.5 0.833333,46.5 -0.5,46.5C -0.5,45.1667 -0.5,43.8333 -0.5,42.5 Z"/></g>
<g><path style="opacity:1" fill="#f4f4f4" d="M 11.5,42.5 C 12.2216,42.9175 12.7216,43.5842 13,44.5C 13.3076,43.6919 13.8076,43.0253 14.5,42.5C 15.9344,43.5884 16.9344,44.9217 17.5,46.5C 15.1667,46.5 12.8333,46.5 10.5,46.5C 10.8333,45.1667 11.1667,43.8333 11.5,42.5 Z"/></g>
</svg>
