<?xml version="1.0" encoding="UTF-8"?>
<!DOCTYPE svg PUBLIC "-//W3C//DTD SVG 1.1//EN" "http://www.w3.org/Graphics/SVG/1.1/DTD/svg11.dtd">
<svg xmlns="http://www.w3.org/2000/svg" version="1.1" width="39px" height="39px" style="shape-rendering:geometricPrecision; text-rendering:geometricPrecision; image-rendering:optimizeQuality; fill-rule:evenodd; clip-rule:evenodd" xmlns:xlink="http://www.w3.org/1999/xlink">
<g><path style="opacity:1" fill="#f3f3f3" d="M -0.5,-0.5 C 4.5,-0.5 9.5,-0.5 14.5,-0.5C 13.4043,3.24974 11.0709,4.41641 7.5,3C 6.75561,4.8148 6.08894,6.64813 5.5,8.5C 4.5,8.5 3.5,8.5 2.5,8.5C 3.17173,11.9419 2.17173,14.6086 -0.5,16.5C -0.5,10.8333 -0.5,5.16667 -0.5,-0.5 Z"/></g>
<g><path style="opacity:1" fill="#f3f3f3" d="M 23.5,-0.5 C 28.5,-0.5 33.5,-0.5 38.5,-0.5C 38.5,5.16667 38.5,10.8333 38.5,16.5C 35.8283,14.6086 34.8283,11.9419 35.5,8.5C 34.1667,8.5 32.8333,8.5 31.5,8.5C 32.3959,3.22287 30.3959,1.38953 25.5,3C 24.695,1.88732 24.0283,0.72065 23.5,-0.5 Z"/></g>
<g><path style="opacity:1" fill="#e8e8e8" d="M 24.5,33.5 C 22.1939,32.2154 20.3606,32.8821 19,35.5C 17.1306,32.3091 14.6306,31.6424 11.5,33.5C 11.5,32.5 11.5,31.5 11.5,30.5C 9.83333,30.5 8.16667,30.5 6.5,30.5C 4.346,26.2042 3.01266,21.7042 2.5,17C 5.20981,15.5402 5.87647,13.5402 4.5,11C 7.87623,10.6929 9.20957,8.85953 8.5,5.5C 11.6516,6.04145 14.1516,5.04145 16,2.5C 18,5.16667 20,5.16667 22,2.5C 23.8484,5.04145 26.3484,6.04145 29.5,5.5C 28.7904,8.85953 30.1238,10.6929 33.5,11C 32.1235,13.5402 32.7902,15.5402 35.5,17C 34.9873,21.7042 33.654,26.2042 31.5,30.5C 29.8333,30.5 28.1667,30.5 26.5,30.5C 26.7148,32.1788 26.0481,33.1788 24.5,33.5 Z"/></g>
<g><path style="opacity:1" fill="#1b1b1b" d="M 14.5,-0.5 C 14.8333,-0.5 15.1667,-0.5 15.5,-0.5C 17.594,1.99384 19.594,1.99384 21.5,-0.5C 22.1667,-0.5 22.8333,-0.5 23.5,-0.5C 24.0283,0.72065 24.695,1.88732 25.5,3C 30.3959,1.38953 32.3959,3.22287 31.5,8.5C 32.8333,8.5 34.1667,8.5 35.5,8.5C 34.8283,11.9419 35.8283,14.6086 38.5,16.5C 38.5,16.8333 38.5,17.1667 38.5,17.5C 37.548,18.452 36.548,19.452 35.5,20.5C 38.7279,24.0241 38.0612,26.0241 33.5,26.5C 33.5,28.5 33.5,30.5 33.5,32.5C 31.712,32.2148 30.0453,32.5481 28.5,33.5C 27.4236,36.2195 25.7569,36.8861 23.5,35.5C 25.6977,35.5912 26.0311,34.9245 24.5,33.5C 26.0481,33.1788 26.7148,32.1788 26.5,30.5C 28.1667,30.5 29.8333,30.5 31.5,30.5C 33.654,26.2042 34.9873,21.7042 35.5,17C 32.7902,15.5402 32.1235,13.5402 33.5,11C 30.1238,10.6929 28.7904,8.85953 29.5,5.5C 26.3484,6.04145 23.8484,5.04145 22,2.5C 20,5.16667 18,5.16667 16,2.5C 14.1516,5.04145 11.6516,6.04145 8.5,5.5C 7.89992,6.90018 6.89992,7.90018 5.5,8.5C 6.08894,6.64813 6.75561,4.8148 7.5,3C 11.0709,4.41641 13.4043,3.24974 14.5,-0.5 Z"/></g>
<g><path style="opacity:1" fill="#e6e6e6" d="M 15.5,-0.5 C 17.5,-0.5 19.5,-0.5 21.5,-0.5C 19.594,1.99384 17.594,1.99384 15.5,-0.5 Z"/></g>
<g><path style="opacity:1" fill="#1b1b1b" d="M 14.5,8.5 C 25.9893,7.15508 30.8226,12.1551 29,23.5C 25.7231,29.1088 20.8897,30.9422 14.5,29C 8.89116,25.7231 7.05783,20.8897 9,14.5C 10.3597,11.9774 12.193,9.97739 14.5,8.5 Z"/></g>
<g><path style="opacity:1" fill="#efefef" d="M 15.5,10.5 C 22.6027,9.20181 26.6027,12.0351 27.5,19C 27.3333,24.5 24.5,27.3333 19,27.5C 11.8749,26.602 9.20826,22.602 11,15.5C 12.025,13.313 13.525,11.6464 15.5,10.5 Z"/></g>
<g><path style="opacity:1" fill="#171717" d="M 8.5,5.5 C 9.20957,8.85953 7.87623,10.6929 4.5,11C 5.87647,13.5402 5.20981,15.5402 2.5,17C 3.01266,21.7042 4.346,26.2042 6.5,30.5C 8.16667,30.5 9.83333,30.5 11.5,30.5C 11.5,31.5 11.5,32.5 11.5,33.5C 14.6306,31.6424 17.1306,32.3091 19,35.5C 20.3606,32.8821 22.1939,32.2154 24.5,33.5C 26.0311,34.9245 25.6977,35.5912 23.5,35.5C 21.5956,35.7376 20.2623,36.7376 19.5,38.5C 19.1667,38.5 18.8333,38.5 18.5,38.5C 17.0822,35.5279 14.9155,34.8612 12,36.5C 10.6988,35.9019 9.86549,34.9019 9.5,33.5C 7.95467,32.5481 6.28801,32.2148 4.5,32.5C 4.5,30.5 4.5,28.5 4.5,26.5C -0.0612268,26.0241 -0.727893,24.0241 2.5,20.5C 1.45196,19.452 0.451959,18.452 -0.5,17.5C -0.5,17.1667 -0.5,16.8333 -0.5,16.5C 2.17173,14.6086 3.17173,11.9419 2.5,8.5C 3.5,8.5 4.5,8.5 5.5,8.5C 6.89992,7.90018 7.89992,6.90018 8.5,5.5 Z"/></g>
<g><path style="opacity:1" fill="#151515" d="M 21.5,15.5 C 23.0281,15.5173 23.5281,16.184 23,17.5C 21.2599,19.9535 19.0933,21.4535 16.5,22C 15.6433,21.3109 14.9767,20.4776 14.5,19.5C 17.6486,20.0836 19.9819,18.7502 21.5,15.5 Z"/></g>
<g><path style="opacity:1" fill="#f2f2f2" d="M -0.5,17.5 C 0.451959,18.452 1.45196,19.452 2.5,20.5C -0.727893,24.0241 -0.0612268,26.0241 4.5,26.5C 4.5,28.5 4.5,30.5 4.5,32.5C 6.28801,32.2148 7.95467,32.5481 9.5,33.5C 9.86549,34.9019 10.6988,35.9019 12,36.5C 14.9155,34.8612 17.0822,35.5279 18.5,38.5C 12.1667,38.5 5.83333,38.5 -0.5,38.5C -0.5,31.5 -0.5,24.5 -0.5,17.5 Z"/></g>
<g><path style="opacity:1" fill="#f3f3f3" d="M 38.5,17.5 C 38.5,24.5 38.5,31.5 38.5,38.5C 32.1667,38.5 25.8333,38.5 19.5,38.5C 20.2623,36.7376 21.5956,35.7376 23.5,35.5C 25.7569,36.8861 27.4236,36.2195 28.5,33.5C 30.0453,32.5481 31.712,32.2148 33.5,32.5C 33.5,30.5 33.5,28.5 33.5,26.5C 38.0612,26.0241 38.7279,24.0241 35.5,20.5C 36.548,19.452 37.548,18.452 38.5,17.5 Z"/></g>
</svg>
