<?xml version="1.0" standalone="no"?>
<!DOCTYPE svg PUBLIC "-//W3C//DTD SVG 20010904//EN"
 "http://www.w3.org/TR/2001/REC-SVG-20010904/DTD/svg10.dtd">
<svg version="1.0" xmlns="http://www.w3.org/2000/svg"
 width="65.000000pt" height="38.000000pt" viewBox="0 0 65.000000 38.000000"
 preserveAspectRatio="xMidYMid meet">

<g transform="translate(0.000000,38.000000) scale(0.100000,-0.100000)"
fill="#000000" stroke="none">
<path d="M310 342 c0 -10 -11 -25 -25 -32 -27 -15 -39 -43 -33 -81 2 -17 18
-30 56 -48 34 -17 52 -32 52 -44 0 -24 -27 -33 -63 -19 -23 9 -34 9 -45 0 -12
-10 -11 -15 8 -30 12 -10 28 -18 36 -18 8 0 14 -9 14 -20 0 -24 28 -27 37 -5
3 9 18 29 34 45 47 47 34 90 -36 120 -52 22 -62 37 -41 58 13 14 21 14 48 4
17 -6 35 -9 39 -6 17 10 9 35 -15 45 -13 6 -27 20 -29 30 -7 24 -37 25 -37 1z"/>
</g>
</svg>
