<?xml version="1.0" standalone="no"?>
<!DOCTYPE svg PUBLIC "-//W3C//DTD SVG 20010904//EN"
 "http://www.w3.org/TR/2001/REC-SVG-20010904/DTD/svg10.dtd">
<svg version="1.0" xmlns="http://www.w3.org/2000/svg"
 width="47.000000pt" height="47.000000pt" viewBox="0 0 47.000000 47.000000"
 preserveAspectRatio="xMidYMid meet">

<g transform="translate(0.000000,47.000000) scale(0.100000,-0.100000)"
fill="#000000" stroke="none">
<path d="M162 441 c-21 -14 -35 -32 -39 -52 -3 -17 -12 -33 -19 -36 -9 -3 -14
-21 -14 -49 0 -40 2 -44 25 -44 24 0 25 2 25 68 0 88 17 107 96 107 78 0 95
-21 97 -114 l2 -71 -57 0 c-36 0 -58 -4 -58 -11 0 -15 112 -4 139 13 16 10 21
23 21 55 0 24 -4 43 -9 43 -5 0 -12 13 -16 29 -10 47 -47 74 -107 78 -41 3
-61 -1 -86 -16z"/>
<path d="M167 402 c-12 -13 -17 -37 -17 -83 0 -59 3 -68 29 -94 26 -24 36 -27
70 -22 24 3 39 1 35 -4 -3 -5 -10 -9 -16 -9 -6 0 -17 -8 -24 -17 -8 -11 -13
-13 -14 -6 0 7 -12 19 -26 26 -24 13 -31 12 -69 -10 -51 -28 -63 -41 -75 -82
-7 -26 -5 -33 16 -50 57 -45 228 -52 303 -13 30 17 36 24 34 51 -1 40 -15 56
-80 98 -34 21 -64 33 -88 33 -28 0 -35 4 -35 19 0 24 18 31 68 24 l40 -5 4 57
c5 87 -10 105 -88 105 -37 0 -55 -5 -67 -18z m161 -289 c-10 -2 -26 -2 -35 0
-10 3 -2 5 17 5 19 0 27 -2 18 -5z"/>
</g>
</svg>
