<?xml version="1.0" standalone="no"?>
<!DOCTYPE svg PUBLIC "-//W3C//DTD SVG 20010904//EN"
 "http://www.w3.org/TR/2001/REC-SVG-20010904/DTD/svg10.dtd">
<svg version="1.0" xmlns="http://www.w3.org/2000/svg"
 width="40.000000pt" height="23.000000pt" viewBox="0 0 40.000000 23.000000"
 preserveAspectRatio="xMidYMid meet">

<g transform="translate(0.000000,23.000000) scale(0.100000,-0.100000)"
fill="#000000" stroke="none">
<path d="M90 209 c0 -5 4 -8 9 -4 12 7 44 -102 37 -121 -9 -24 12 -66 32 -62
9 2 16 10 14 16 -1 7 9 12 23 12 16 0 25 -6 25 -15 0 -22 27 -18 40 5 10 19 8
20 -55 20 -37 0 -65 4 -65 10 0 6 30 10 69 10 l69 0 11 44 c6 25 11 50 11 55
0 7 -34 11 -90 11 -71 0 -92 3 -96 15 -7 17 -34 21 -34 4z m210 -35 c0 -4 -5
-24 -12 -45 l-11 -39 -62 0 c-60 0 -63 1 -69 28 -4 15 -9 35 -12 45 -5 15 3
17 80 17 47 0 86 -3 86 -6z m-130 -134 c0 -5 -4 -10 -10 -10 -5 0 -10 5 -10
10 0 6 5 10 10 10 6 0 10 -4 10 -10z m90 0 c0 -5 -4 -10 -10 -10 -5 0 -10 5
-10 10 0 6 5 10 10 10 6 0 10 -4 10 -10z"/>
</g>
</svg>
