<?xml version="1.0" standalone="no"?>
<!DOCTYPE svg PUBLIC "-//W3C//DTD SVG 20010904//EN"
 "http://www.w3.org/TR/2001/REC-SVG-20010904/DTD/svg10.dtd">
<svg version="1.0" xmlns="http://www.w3.org/2000/svg"
 width="32.000000pt" height="32.000000pt" viewBox="0 0 32.000000 32.000000"
 preserveAspectRatio="xMidYMid meet">

<g transform="translate(0.000000,32.000000) scale(0.100000,-0.100000)"
fill="#000000" stroke="none">
<path d="M149 271 c-30 -30 -38 -72 -19 -101 7 -11 -3 -27 -41 -66 -28 -29
-47 -54 -42 -57 5 -4 31 16 58 43 39 39 52 47 66 39 53 -28 129 19 129 81 0
43 -47 90 -90 90 -22 0 -41 -9 -61 -29z m108 -13 c29 -27 29 -57 2 -92 -25
-32 -64 -34 -96 -4 -31 29 -30 71 3 97 34 27 62 27 91 -1z"/>
</g>
</svg>
