<?xml version="1.0" standalone="no"?>
<!DOCTYPE svg PUBLIC "-//W3C//DTD SVG 20010904//EN"
 "http://www.w3.org/TR/2001/REC-SVG-20010904/DTD/svg10.dtd">
<svg version="1.0" xmlns="http://www.w3.org/2000/svg"
 width="50.000000pt" height="50.000000pt" viewBox="0 0 50.000000 50.000000"
 preserveAspectRatio="xMidYMid meet">

<g transform="translate(0.000000,50.000000) scale(0.100000,-0.100000)"
fill="#000000" stroke="none">
<path d="M206 348 c-20 -28 -20 -51 -1 -88 14 -27 14 -28 -13 -38 -39 -13 -62
-39 -62 -68 l0 -24 120 0 120 0 0 24 c0 29 -23 55 -62 68 -27 10 -27 11 -13
38 19 37 19 60 -1 88 -20 30 -68 30 -88 0z m78 -4 c21 -20 20 -49 -1 -86 -11
-18 -14 -32 -8 -34 47 -17 80 -42 83 -61 3 -23 2 -23 -108 -23 -110 0 -111 0
-108 23 3 19 36 44 83 61 6 2 3 16 -7 34 -10 16 -18 39 -18 50 0 26 25 52 50
52 10 0 26 -7 34 -16z"/>
</g>
</svg>
